<?xml version="1.0" encoding="UTF-8" standalone="no"?>
<svg
   xmlns:dc="http://purl.org/dc/elements/1.1/"
   xmlns:cc="http://creativecommons.org/ns#"
   xmlns:rdf="http://www.w3.org/1999/02/22-rdf-syntax-ns#"
   xmlns:svg="http://www.w3.org/2000/svg"
   xmlns="http://www.w3.org/2000/svg"
   xmlns:sodipodi="http://sodipodi.sourceforge.net/DTD/sodipodi-0.dtd"
   xmlns:inkscape="http://www.inkscape.org/namespaces/inkscape"
   width="16"
   height="16"
   viewBox="0 0 16 16"
   fill="none"
   version="1.1"
   id="svg4631"
   sodipodi:docname="debug-stackframe-dot.svg"
   inkscape:version="0.92.4 (5da689c313, 2019-01-14)">
  <metadata
     id="metadata4637">
    <rdf:RDF>
      <cc:Work
         rdf:about="">
        <dc:format>image/svg+xml</dc:format>
        <dc:type
           rdf:resource="http://purl.org/dc/dcmitype/StillImage" />
      </cc:Work>
    </rdf:RDF>
  </metadata>
  <defs
     id="defs4635" />
  <sodipodi:namedview
     pagecolor="#ffffff"
     bordercolor="#666666"
     borderopacity="1"
     objecttolerance="10"
     gridtolerance="10"
     guidetolerance="10"
     inkscape:pageopacity="0"
     inkscape:pageshadow="2"
     inkscape:window-width="1920"
     inkscape:window-height="1017"
     id="namedview4633"
     showgrid="false"
     inkscape:zoom="14.75"
     inkscape:cx="8"
     inkscape:cy="8"
     inkscape:window-x="-8"
     inkscape:window-y="-8"
     inkscape:window-maximized="1"
     inkscape:current-layer="svg4631" />
  <path
     d="M9.99999 8C9.99999 8.39556 9.88272 8.78219 9.66295 9.11108C9.44319 9.43998 9.13082 9.6964 8.76537 9.84778C8.39992 9.99915 7.99781 10.0387 7.60985 9.96155C7.22189 9.88438 6.86551 9.69389 6.5858 9.41418C6.3061 9.13448 6.11561 8.7781 6.03844 8.39014C5.96127 8.00217 6.00084 7.60007 6.15221 7.23462C6.30359 6.86917 6.56001 6.5568 6.88891 6.33704C7.2178 6.11727 7.60443 6 7.99999 6C8.53042 6 9.0391 6.21074 9.41417 6.58582C9.78925 6.96089 9.99999 7.46957 9.99999 8Z"
     fill="#E51400"
     id="path4629"
     style="fill:#858585;fill-opacity:1" />
</svg>
