<?xml version="1.0" encoding="UTF-8" standalone="no"?>
<svg
   xmlns:dc="http://purl.org/dc/elements/1.1/"
   xmlns:cc="http://creativecommons.org/ns#"
   xmlns:rdf="http://www.w3.org/1999/02/22-rdf-syntax-ns#"
   xmlns:svg="http://www.w3.org/2000/svg"
   xmlns="http://www.w3.org/2000/svg"
   id="svg8"
   version="1.1"
   viewBox="0 0 8.4666664 8.4666658"
   height="8.4666662mm"
   width="8.4666662mm">
  <defs
     id="defs2" />
  <metadata
     id="metadata5">
    <rdf:RDF>
      <cc:Work
         rdf:about="">
        <dc:format>image/svg+xml</dc:format>
        <dc:type
           rdf:resource="http://purl.org/dc/dcmitype/StillImage" />
        <dc:title></dc:title>
      </cc:Work>
    </rdf:RDF>
  </metadata>
  <path
     style="opacity:1;fill:#e5b225;fill-opacity:1;stroke:#000000;stroke-width:0.75595242;stroke-opacity:1"
     d=""
     id="path4575" />
  <g
     style="stroke-width:7.55905533;stroke-miterlimit:4;stroke-dasharray:none"
     id="g4900"
     transform="matrix(0.26458333,0,0,0.26458333,-65.17403,-237.79105)">
    <g
       style="stroke-width:7.55905533;stroke-miterlimit:4;stroke-dasharray:none"
       id="g4898">
      <g
         style="stroke-width:7.55905533;stroke-miterlimit:4;stroke-dasharray:none"
         id="g4896">
        <text
           id="text4966-1"
           y="924.15704"
           x="252.11597"
           style="font-style:normal;font-weight:normal;font-size:28.4521122px;line-height:1.25;font-family:sans-serif;letter-spacing:0px;word-spacing:0px;fill:#858585;fill-opacity:1;stroke:#858585;stroke-width:1.30442333;stroke-miterlimit:4;stroke-dasharray:none;stroke-opacity:1"
           xml:space="preserve"><tspan
             style="font-style:normal;font-variant:normal;font-weight:normal;font-stretch:normal;font-family:'Times New Roman';-inkscape-font-specification:'Times New Roman, ';fill:#858585;fill-opacity:1;stroke:#858585;stroke-width:1.30442333;stroke-miterlimit:4;stroke-dasharray:none;stroke-opacity:1"
             id="tspan4968-2"
             y="924.15704"
             x="252.11597">X</tspan></text>
      </g>
    </g>
  </g>
  <g
     id="g4902"
     transform="matrix(0.26458333,0,0,0.26458333,-65.17403,-237.79105)" />
  <g
     id="g4904"
     transform="matrix(0.26458333,0,0,0.26458333,-65.17403,-237.79105)" />
  <g
     id="g4906"
     transform="matrix(0.26458333,0,0,0.26458333,-65.17403,-237.79105)" />
  <g
     id="g4908"
     transform="matrix(0.26458333,0,0,0.26458333,-65.17403,-237.79105)" />
  <g
     id="g4910"
     transform="matrix(0.26458333,0,0,0.26458333,-65.17403,-237.79105)" />
  <g
     id="g4912"
     transform="matrix(0.26458333,0,0,0.26458333,-65.17403,-237.79105)" />
  <g
     id="g4914"
     transform="matrix(0.26458333,0,0,0.26458333,-65.17403,-237.79105)" />
  <g
     id="g4916"
     transform="matrix(0.26458333,0,0,0.26458333,-65.17403,-237.79105)" />
  <g
     id="g4918"
     transform="matrix(0.26458333,0,0,0.26458333,-65.17403,-237.79105)" />
  <g
     id="g4920"
     transform="matrix(0.26458333,0,0,0.26458333,-65.17403,-237.79105)" />
  <g
     id="g4922"
     transform="matrix(0.26458333,0,0,0.26458333,-65.17403,-237.79105)" />
  <g
     id="g4924"
     transform="matrix(0.26458333,0,0,0.26458333,-65.17403,-237.79105)" />
  <g
     id="g4926"
     transform="matrix(0.26458333,0,0,0.26458333,-65.17403,-237.79105)" />
  <g
     id="g4928"
     transform="matrix(0.26458333,0,0,0.26458333,-65.17403,-237.79105)" />
  <g
     id="g4930"
     transform="matrix(0.26458333,0,0,0.26458333,-65.17403,-237.79105)" />
</svg>
