<?xml version="1.0" encoding="UTF-8" standalone="no"?>
<svg
   xmlns:dc="http://purl.org/dc/elements/1.1/"
   xmlns:cc="http://creativecommons.org/ns#"
   xmlns:rdf="http://www.w3.org/1999/02/22-rdf-syntax-ns#"
   xmlns:svg="http://www.w3.org/2000/svg"
   xmlns="http://www.w3.org/2000/svg"
   xmlns:sodipodi="http://sodipodi.sourceforge.net/DTD/sodipodi-0.dtd"
   xmlns:inkscape="http://www.inkscape.org/namespaces/inkscape"
   id="svg1075"
   version="1.1"
   viewBox="0 0 24 24"
   height="24mm"
   width="24mm"
   sodipodi:docname="logo-bar.svg"
   inkscape:version="0.92.4 (5da689c313, 2019-01-14)">
  <sodipodi:namedview
     pagecolor="#ffffff"
     bordercolor="#666666"
     borderopacity="1"
     objecttolerance="10"
     gridtolerance="10"
     guidetolerance="10"
     inkscape:pageopacity="0"
     inkscape:pageshadow="2"
     inkscape:window-width="1920"
     inkscape:window-height="1017"
     id="namedview2357"
     showgrid="false"
     inkscape:zoom="2.6017361"
     inkscape:cx="45.354331"
     inkscape:cy="45.354331"
     inkscape:window-x="-8"
     inkscape:window-y="-8"
     inkscape:window-maximized="1"
     inkscape:current-layer="svg1075" />
  <defs
     id="defs1069" />
  <metadata
     id="metadata1072">
    <rdf:RDF>
      <cc:Work
         rdf:about="">
        <dc:format>image/svg+xml</dc:format>
        <dc:type
           rdf:resource="http://purl.org/dc/dcmitype/StillImage" />
        <dc:title />
      </cc:Work>
    </rdf:RDF>
  </metadata>
  <g
     id="g3000"
     transform="matrix(0.51462776,0,0,0.51462776,28.380785,9.7496049)">
    <path
       id="Shape-0-8"
       transform="scale(0.26458333)"
       d="m -169.37891,-67.947266 c -4.51717,0 -8.17773,3.779981 -8.17773,8.445313 v 47.871094 h -2.72852 c -4.51733,0 -8.17968,3.7818466 -8.17968,8.4472652 v 2.81445318 h -5.45118 V -8.8144531 c 0,-1.5551659 -1.22076,-2.8164059 -2.72656,-2.8164059 -1.50572,0 -2.72656,1.26124 -2.72656,2.8164059 V 13.710938 c 0,1.555166 1.22084,2.816406 2.72656,2.816406 1.5058,0 2.72656,-1.26124 2.72656,-2.816406 V 5.2636719 h 5.45118 v 2.8164062 c 0.008,3.2819109 1.86028,6.2602179 4.74414,7.6386719 -6.39557,4.748489 -10.18859,12.384461 -10.19532,20.519531 v 47.869141 c -4.51725,0 -8.17968,3.781843 -8.17968,8.447266 0,4.665339 3.66243,8.447262 8.17968,8.447262 h 147.224614 c 4.51717,0 8.179687,-3.781923 8.179687,-8.447262 0,-4.665423 -3.662517,-8.447266 -8.179687,-8.447266 V 36.238281 c -0.0042,-8.13507 -3.801738,-15.771042 -10.197266,-20.519531 2.883889,-1.378454 4.734091,-4.356761 4.744141,-7.6386719 V 5.2636719 h 5.453125 v 8.4472661 c 0,1.555166 1.218879,2.816406 2.724609,2.816406 1.505798,0 2.726563,-1.26124 2.726563,-2.816406 V -8.8144531 c 0,-1.5551659 -1.220765,-2.8164059 -2.726563,-2.8164059 -1.50573,0 -2.724609,1.26124 -2.724609,2.8164059 v 8.44531248 h -5.453125 V -3.1835938 c 0,-4.6654186 -3.662438,-8.4472652 -8.179688,-8.4472652 h -2.726562 v -47.871094 c 0,-4.665332 -3.660553,-8.445313 -8.177735,-8.445313 z m -3.91015,4.871094 h 105.968748 v 46.72461 H -173.28906 Z M -180.28516,-6 h 119.960941 c 1.50573,0 2.726563,1.2613159 2.726563,2.8164062 V 8.0800781 c 0,1.5551056 -1.220833,2.8144529 -2.726563,2.8144529 H -180.28516 c -1.5058,0 -2.72656,-1.2593473 -2.72656,-2.8144529 V -3.1835938 C -183.01172,-4.7386841 -181.79096,-6 -180.28516,-6 Z m 10.90625,22.527344 h 98.150394 c 10.535063,0.01247 19.072004,8.83018 19.083985,19.710937 V 84.107422 H -188.46484 V 36.238281 c 0.0113,-10.880757 8.55076,-19.698639 19.08593,-19.710937 z m -24.53711,73.210937 v 5.63086 c -1.5058,0 -2.72656,-1.259363 -2.72656,-2.814453 0,-1.55517 1.22076,-2.816407 2.72656,-2.816407 z m 147.224614,0 c 1.505083,6.81e-4 2.724609,1.261717 2.724609,2.816407 0,1.55461 -1.219526,2.813689 -2.724609,2.814453 z"
       style="fill:#858585;fill-opacity:1;stroke:#858585;stroke-width:3.68159533;stroke-miterlimit:4;stroke-dasharray:none;stroke-opacity:1"
       inkscape:connector-curvature="0" />
    <circle
       r="1.5028139"
       cy="9.2158394"
       cx="-38.978245"
       id="path1600-32-9-9"
       style="opacity:1;fill:#858585;fill-opacity:1;stroke:#858585;stroke-width:2.40987229;stroke-miterlimit:4;stroke-dasharray:none;stroke-opacity:1" />
    <circle
       r="1.5028139"
       cy="9.2158394"
       cx="-31.830494"
       id="path1600-3-86-0-5"
       style="opacity:1;fill:#858585;fill-opacity:1;stroke:#858585;stroke-width:2.40987229;stroke-miterlimit:4;stroke-dasharray:none;stroke-opacity:1" />
    <circle
       r="1.5028139"
       cy="17.139463"
       cx="-42.569603"
       id="path1600-5-2-5-5"
       style="opacity:1;fill:#858585;fill-opacity:1;stroke:#858585;stroke-width:2.40987229;stroke-miterlimit:4;stroke-dasharray:none;stroke-opacity:1" />
    <circle
       r="1.5028139"
       cy="17.139463"
       cx="-35.38689"
       id="path1600-3-4-8-0-5"
       style="opacity:1;fill:#858585;fill-opacity:1;stroke:#858585;stroke-width:2.40987229;stroke-miterlimit:4;stroke-dasharray:none;stroke-opacity:1" />
    <circle
       r="1.5028139"
       cy="17.139463"
       cx="-28.274103"
       id="path1600-5-8-1-5-3"
       style="opacity:1;fill:#858585;fill-opacity:1;stroke:#858585;stroke-width:2.40987229;stroke-miterlimit:4;stroke-dasharray:none;stroke-opacity:1" />
    <circle
       r="1.5028139"
       cy="17.139463"
       cx="-21.091393"
       id="path1600-3-4-3-6-2-3"
       style="opacity:1;fill:#858585;fill-opacity:1;stroke:#858585;stroke-width:2.40987229;stroke-miterlimit:4;stroke-dasharray:none;stroke-opacity:1" />
    <circle
       r="1.5028139"
       cy="9.2158394"
       cx="-24.682747"
       id="path1600-3-8-07-2-6-6"
       style="opacity:1;fill:#858585;fill-opacity:1;stroke:#858585;stroke-width:2.40987229;stroke-miterlimit:4;stroke-dasharray:none;stroke-opacity:1" />
    <text
       id="text2015-8"
       y="-6.0457482"
       x="-35.37751"
       style="font-style:normal;font-variant:normal;font-weight:normal;font-stretch:normal;font-size:13.64186764px;line-height:1.25;font-family:Cambria;-inkscape-font-specification:Cambria;letter-spacing:0px;word-spacing:0px;fill:#858585;fill-opacity:1;stroke:#858585;stroke-width:0.87889951;stroke-miterlimit:4;stroke-dasharray:none;stroke-opacity:1"
       xml:space="preserve"><tspan
         style="font-style:normal;font-variant:normal;font-weight:normal;font-stretch:normal;font-family:Cambria;-inkscape-font-specification:Cambria;fill:#858585;fill-opacity:1;stroke:#858585;stroke-width:0.87889951;stroke-miterlimit:4;stroke-dasharray:none;stroke-opacity:1"
         y="-6.0457482"
         x="-35.37751"
         id="tspan2013-6"
         sodipodi:role="line">b</tspan></text>
  </g>
</svg>
