<?xml version="1.0" encoding="UTF-8" standalone="no"?>
<svg
   xmlns:dc="http://purl.org/dc/elements/1.1/"
   xmlns:cc="http://creativecommons.org/ns#"
   xmlns:rdf="http://www.w3.org/1999/02/22-rdf-syntax-ns#"
   xmlns:svg="http://www.w3.org/2000/svg"
   xmlns="http://www.w3.org/2000/svg"
   xmlns:sodipodi="http://sodipodi.sourceforge.net/DTD/sodipodi-0.dtd"
   xmlns:inkscape="http://www.inkscape.org/namespaces/inkscape"
   id="svg1075"
   version="1.1"
   viewBox="0 0 24 24"
   height="24mm"
   width="24mm"
   sodipodi:docname="logo-bar.svg"
   inkscape:version="0.92.5 (2060ec1f9f, 2020-04-08)">
  <sodipodi:namedview
     pagecolor="#ffffff"
     bordercolor="#666666"
     borderopacity="1"
     objecttolerance="10"
     gridtolerance="10"
     guidetolerance="10"
     inkscape:pageopacity="0"
     inkscape:pageshadow="2"
     inkscape:window-width="1920"
     inkscape:window-height="968"
     id="namedview2357"
     showgrid="false"
     inkscape:zoom="2.6017361"
     inkscape:cx="-30.172161"
     inkscape:cy="45.354331"
     inkscape:window-x="0"
     inkscape:window-y="27"
     inkscape:window-maximized="1"
     inkscape:current-layer="svg1075" />
  <defs
     id="defs1069" />
  <metadata
     id="metadata1072">
    <rdf:RDF>
      <cc:Work
         rdf:about="">
        <dc:format>image/svg+xml</dc:format>
        <dc:type
           rdf:resource="http://purl.org/dc/dcmitype/StillImage" />
        <dc:title />
      </cc:Work>
    </rdf:RDF>
  </metadata>
  <path
     inkscape:connector-curvature="0"
     style="fill:#858585;fill-opacity:1;stroke:#858585;stroke-width:0.50129312;stroke-miterlimit:4;stroke-dasharray:none;stroke-opacity:1"
     d="m 5.3178257,0.49777402 c -0.6150666,0 -1.1134955,0.51468948 -1.1134955,1.14993008 V 8.1659247 H 3.8328097 c -0.6150884,0 -1.1137611,0.5149435 -1.1137611,1.1501959 V 9.699342 H 1.9768055 v -1.14993 c 0,-0.2117544 -0.1662211,-0.3834873 -0.3712537,-0.3834873 -0.2050218,0 -0.3712537,0.1717329 -0.3712537,0.3834873 v 3.067101 C 1.2342981,11.828267 1.40053,12 1.6055518,12 1.8105844,12 1.9768055,11.828267 1.9768055,11.616513 v -1.150196 h 0.7422431 v 0.383487 c 0.00109,0.446871 0.2532994,0.852403 0.6459713,1.040096 -0.8708331,0.646564 -1.3872981,1.686292 -1.3882144,2.793979 v 6.517955 c -0.6150775,0 -1.11376106,0.514943 -1.11376106,1.150196 0,0.635241 0.49868356,1.150195 1.11376106,1.150195 H 22.023193 c 0.615067,0 1.113762,-0.514954 1.113762,-1.150195 0,-0.635253 -0.498695,-1.150196 -1.113762,-1.150196 v -6.517955 c -5.72e-4,-1.107687 -0.517652,-2.147415 -1.388479,-2.793979 0.392676,-0.187693 0.644603,-0.593225 0.645971,-1.040096 v -0.383487 h 0.742508 v 1.150196 c 0,0.211754 0.165965,0.383487 0.370988,0.383487 0.205032,0 0.371254,-0.171733 0.371254,-0.383487 V 8.549412 c 0,-0.2117544 -0.166222,-0.3834873 -0.371254,-0.3834873 -0.205023,0 -0.370988,0.1717329 -0.370988,0.3834873 v 1.14993 H 21.280685 V 9.3161206 c 0,-0.6352524 -0.498685,-1.1501959 -1.113762,-1.1501959 H 19.795669 V 1.6477041 c 0,-0.6352406 -0.498428,-1.14993008 -1.113496,-1.14993008 z M 4.7854121,1.1610316 H 19.214321 V 7.5231447 H 4.7854121 Z M 3.8328097,8.9326333 H 20.166923 c 0.205023,0 0.371254,0.1717432 0.371254,0.3834873 v 1.5336834 c 0,0.211746 -0.166231,0.383221 -0.371254,0.383221 H 3.8328097 c -0.2050327,0 -0.3712537,-0.171475 -0.3712537,-0.383221 V 9.3161206 c 0,-0.2117441 0.166221,-0.3834873 0.3712537,-0.3834873 z M 5.3178257,12 H 18.682173 c 1.434474,0.0017 2.596881,1.202334 2.598512,2.683879 v 6.517955 H 2.7190486 V 14.683879 C 2.7205873,13.202334 3.8833366,12.001674 5.3178257,12 Z m -3.3410202,9.968542 v 0.766709 c -0.2050327,0 -0.3712537,-0.171477 -0.3712537,-0.383221 0,-0.211755 0.166221,-0.383488 0.3712537,-0.383488 z m 20.0463875,0 c 0.204935,9.3e-5 0.370988,0.171798 0.370988,0.383488 0,0.211679 -0.166053,0.383117 -0.370988,0.383221 z"
     id="Shape-0-8" />
  <circle
     style="opacity:1;fill:#858585;fill-opacity:1;stroke:#858585;stroke-width:1.24018717;stroke-miterlimit:4;stroke-dasharray:none;stroke-opacity:1"
     id="path1600-32-9-9"
     cx="8.3214979"
     cy="14.492332"
     r="0.77338976" />
  <circle
     style="opacity:1;fill:#858585;fill-opacity:1;stroke:#858585;stroke-width:1.24018717;stroke-miterlimit:4;stroke-dasharray:none;stroke-opacity:1"
     id="path1600-3-86-0-5"
     cx="11.999929"
     cy="14.492332"
     r="0.77338976" />
  <circle
     style="opacity:1;fill:#858585;fill-opacity:1;stroke:#858585;stroke-width:1.24018717;stroke-miterlimit:4;stroke-dasharray:none;stroke-opacity:1"
     id="path1600-5-2-5-5"
     cx="6.4732857"
     cy="18.570049"
     r="0.77338976" />
  <circle
     style="opacity:1;fill:#858585;fill-opacity:1;stroke:#858585;stroke-width:1.24018717;stroke-miterlimit:4;stroke-dasharray:none;stroke-opacity:1"
     id="path1600-3-4-8-0-5"
     cx="10.169709"
     cy="18.570049"
     r="0.77338976" />
  <circle
     style="opacity:1;fill:#858585;fill-opacity:1;stroke:#858585;stroke-width:1.24018717;stroke-miterlimit:4;stroke-dasharray:none;stroke-opacity:1"
     id="path1600-5-8-1-5-3"
     cx="13.830147"
     cy="18.570049"
     r="0.77338976" />
  <circle
     style="opacity:1;fill:#858585;fill-opacity:1;stroke:#858585;stroke-width:1.24018717;stroke-miterlimit:4;stroke-dasharray:none;stroke-opacity:1"
     id="path1600-3-4-3-6-2-3"
     cx="17.526569"
     cy="18.570049"
     r="0.77338976" />
  <circle
     style="opacity:1;fill:#858585;fill-opacity:1;stroke:#858585;stroke-width:1.24018717;stroke-miterlimit:4;stroke-dasharray:none;stroke-opacity:1"
     id="path1600-3-8-07-2-6-6"
     cx="15.678358"
     cy="14.492332"
     r="0.77338976" />
</svg>
