<?xml version="1.0" encoding="UTF-8" standalone="no"?>
<svg
   xmlns:dc="http://purl.org/dc/elements/1.1/"
   xmlns:cc="http://creativecommons.org/ns#"
   xmlns:rdf="http://www.w3.org/1999/02/22-rdf-syntax-ns#"
   xmlns:svg="http://www.w3.org/2000/svg"
   xmlns="http://www.w3.org/2000/svg"
   id="svg2745"
   version="1.1"
   fill="none"
   viewBox="0 0 16 16"
   height="16"
   width="16">
  <metadata
     id="metadata2751">
    <rdf:RDF>
      <cc:Work
         rdf:about="">
        <dc:format>image/svg+xml</dc:format>
        <dc:type
           rdf:resource="http://purl.org/dc/dcmitype/StillImage" />
        <dc:title></dc:title>
      </cc:Work>
    </rdf:RDF>
  </metadata>
  <defs
     id="defs2749" />
  <path
     style="fill:#424242;fill-opacity:1"
     id="path2741"
     fill="#C5C5C5"
     d="M5.56253 2.51577C3.46348 3.4501 2 5.55414 2 7.99999C2 11.3137 4.68629 14 8 14C11.3137 14 14 11.3137 14 7.99999C14 5.32519 12.2497 3.05919 9.83199 2.28482L9.52968 3.23832C11.5429 3.88454 13 5.7721 13 7.99999C13 10.7614 10.7614 13 8 13C5.23858 13 3 10.7614 3 7.99999C3 6.31104 3.83742 4.81767 5.11969 3.91245L5.56253 2.51577Z"
     clip-rule="evenodd"
     fill-rule="evenodd" />
  <path
     style="fill:#424242;fill-opacity:1"
     id="path2743"
     fill="#C5C5C5"
     d="M5 3H2V2H5.5L6 2.5V6H5V3Z"
     clip-rule="evenodd"
     fill-rule="evenodd" />
</svg>
