<?xml version="1.0" encoding="UTF-8" standalone="no"?>
<svg
   xmlns:dc="http://purl.org/dc/elements/1.1/"
   xmlns:cc="http://creativecommons.org/ns#"
   xmlns:rdf="http://www.w3.org/1999/02/22-rdf-syntax-ns#"
   xmlns:svg="http://www.w3.org/2000/svg"
   xmlns="http://www.w3.org/2000/svg"
   width="8.4666662mm"
   height="8.4666662mm"
   viewBox="0 0 8.4666664 8.4666658"
   version="1.1"
   id="svg8">
  <defs
     id="defs2" />
  <metadata
     id="metadata5">
    <rdf:RDF>
      <cc:Work
         rdf:about="">
        <dc:format>image/svg+xml</dc:format>
        <dc:type
           rdf:resource="http://purl.org/dc/dcmitype/StillImage" />
        <dc:title></dc:title>
      </cc:Work>
    </rdf:RDF>
  </metadata>
  <path
     id="path4575"
     d=""
     style="opacity:1;fill:#e5b225;fill-opacity:1;stroke:#000000;stroke-width:0.75595242;stroke-opacity:1" />
  <g
     transform="matrix(0.26458333,0,0,0.26458333,-65.17403,-237.79105)"
     id="g4900"
     style="stroke-width:7.55905533;stroke-miterlimit:4;stroke-dasharray:none">
    <g
       id="g4898"
       style="stroke-width:7.55905533;stroke-miterlimit:4;stroke-dasharray:none">
      <g
         id="g4896"
         style="stroke-width:7.55905533;stroke-miterlimit:4;stroke-dasharray:none">
        <text
           xml:space="preserve"
           style="font-style:normal;font-weight:normal;font-size:28.4521122px;line-height:1.25;font-family:sans-serif;letter-spacing:0px;word-spacing:0px;fill:#424242;fill-opacity:1;stroke:#424242;stroke-width:1.30442333;stroke-miterlimit:4;stroke-dasharray:none;stroke-opacity:1"
           x="253.85254"
           y="924.15704"
           id="text4966-1"><tspan
             x="253.85254"
             y="924.15704"
             id="tspan4968-2"
             style="font-style:normal;font-variant:normal;font-weight:normal;font-stretch:normal;font-family:'Times New Roman';-inkscape-font-specification:'Times New Roman, ';fill:#424242;fill-opacity:1;stroke:#424242;stroke-width:1.30442333;stroke-miterlimit:4;stroke-dasharray:none;stroke-opacity:1">Z</tspan></text>
      </g>
    </g>
  </g>
  <g
     transform="matrix(0.26458333,0,0,0.26458333,-65.17403,-237.79105)"
     id="g4902" />
  <g
     transform="matrix(0.26458333,0,0,0.26458333,-65.17403,-237.79105)"
     id="g4904" />
  <g
     transform="matrix(0.26458333,0,0,0.26458333,-65.17403,-237.79105)"
     id="g4906" />
  <g
     transform="matrix(0.26458333,0,0,0.26458333,-65.17403,-237.79105)"
     id="g4908" />
  <g
     transform="matrix(0.26458333,0,0,0.26458333,-65.17403,-237.79105)"
     id="g4910" />
  <g
     transform="matrix(0.26458333,0,0,0.26458333,-65.17403,-237.79105)"
     id="g4912" />
  <g
     transform="matrix(0.26458333,0,0,0.26458333,-65.17403,-237.79105)"
     id="g4914" />
  <g
     transform="matrix(0.26458333,0,0,0.26458333,-65.17403,-237.79105)"
     id="g4916" />
  <g
     transform="matrix(0.26458333,0,0,0.26458333,-65.17403,-237.79105)"
     id="g4918" />
  <g
     transform="matrix(0.26458333,0,0,0.26458333,-65.17403,-237.79105)"
     id="g4920" />
  <g
     transform="matrix(0.26458333,0,0,0.26458333,-65.17403,-237.79105)"
     id="g4922" />
  <g
     transform="matrix(0.26458333,0,0,0.26458333,-65.17403,-237.79105)"
     id="g4924" />
  <g
     transform="matrix(0.26458333,0,0,0.26458333,-65.17403,-237.79105)"
     id="g4926" />
  <g
     transform="matrix(0.26458333,0,0,0.26458333,-65.17403,-237.79105)"
     id="g4928" />
  <g
     transform="matrix(0.26458333,0,0,0.26458333,-65.17403,-237.79105)"
     id="g4930" />
</svg>
